<?xml version="1.0" encoding="UTF-8"?>
<svg id="_レイヤー_1" data-name="レイヤー 1" xmlns="http://www.w3.org/2000/svg" xmlns:xlink="http://www.w3.org/1999/xlink" viewBox="0 0 841.89 841.89">
  <defs>
    <style>
      .cls-1 {
        fill: #0b355d;
      }

      .cls-2, .cls-3 {
        fill: #0c0e0c;
      }

      .cls-3 {
        font-family: SFPro-Heavy, 'SF Pro';
        font-size: 151.12px;
        font-variation-settings: 'wdth' 100, 'opsz' 28, 'wght' 860;
        font-weight: 800;
      }

      .cls-4 {
        fill: #fffffd;
      }

      .cls-5 {
        fill: #00416a;
      }

      .cls-6 {
        fill: url(#_名称未設定グラデーション_25);
      }

      .cls-7 {
        fill: url(#_名称未設定グラデーション_21);
      }
    </style>
    <linearGradient id="_名称未設定グラデーション_25" data-name="名称未設定グラデーション 25" x1="180.03" y1="407.28" x2="690.37" y2="407.28" gradientUnits="userSpaceOnUse">
      <stop offset=".06" stop-color="#1266a4"/>
      <stop offset=".19" stop-color="#1268a5"/>
      <stop offset=".27" stop-color="#1271a8"/>
      <stop offset=".34" stop-color="#137fae"/>
      <stop offset=".41" stop-color="#1594b6"/>
      <stop offset=".44" stop-color="#16a4bd"/>
      <stop offset="1" stop-color="#30b8b8"/>
    </linearGradient>
    <linearGradient id="_名称未設定グラデーション_21" data-name="名称未設定グラデーション 21" x1="179.88" y1="406.63" x2="600.13" y2="133.72" gradientUnits="userSpaceOnUse">
      <stop offset=".06" stop-color="#6f3d94"/>
      <stop offset=".1" stop-color="#814289"/>
      <stop offset=".25" stop-color="#b85169"/>
      <stop offset=".35" stop-color="#da5b56"/>
      <stop offset=".41" stop-color="#e75f4f"/>
      <stop offset=".59" stop-color="#eb774a"/>
      <stop offset="1" stop-color="#f5b040"/>
    </linearGradient>
  </defs>
  <rect class="cls-4" width="841.89" height="841.89"/>
  <g>
    <polyline class="cls-1" points="594.97 427.63 597.35 429.7 567.2 488.24 468.66 552.79 334.5 551.3 594.64 429.39"/>
    <path class="cls-6" d="M688.27,258.16c.79-.27,1.71,5.26,1.94,8.23.43,6.92-.02,13.88-.86,20.97-1.27,13.04-5.55,25.66-10.99,37.56-4.53,10.14-9.46,19.66-15.7,28.68-7.98,12.21-18.51,23.68-27.14,35.27-2.94,4.13-2.89,7.33-2.83,12.36,0,5.72,0,14.32,0,24.13-.16,27.55.22,56.17-.1,73.44-1.12,15.99-10.93,31.29-23.24,41.25-9.2,7-20.7,12.77-32.25,12.76-19.4-.02-82.86.07-113-.02-3.13-.11-3.24-.73.88-3.6,3.51-2.45,10.14-6.71,15.36-10.14,18.07-11.72,35.44-24.61,52.08-38.43,13.93-11.81,26.08-25.12,38.58-38.6,7.89-8.48,16.24-20.55,22.76-29.32.83-1.39,3.87-5.17.88-3.3-16.05,11.08-35.11,26.7-51.56,37.4-29.17,18.12-58.64,37.56-89.37,52.37-22.49,10.19-45.35,18.19-68.94,25.02-5.94,1.58-12.63,3.34-18.66,4.88-12.3,3.29-24.5,4.57-37.14,6.28-11.73,1.52-24.23.92-36.27,1.05-15.17.08-31.85-2.97-46.55-7.15-28.3-7.95-55.2-23.99-63.69-53.61-3.08-11.52-3.04-24.11-.97-35.83.1-1.06,1.54-7.66,3.86-12.96,2.34-5.34,5.58-9.36,5.38-5.2-.27,5.47-1,17.98.27,23.14,1.84,8.15,6.36,15.48,12.12,21.66,19.53,21.86,51.18,25.92,78.78,26.14,10.04.08,20.16-1.23,30.18-2.17,13.79-1.4,28.69-5.85,42.36-8.79,27.48-6.54,53.31-16.07,79.78-27.56,22.96-10.06,45.2-20.04,66.85-31.83,24.02-13.08,47.19-28.04,70.13-43.24,12.67-8.22,22.96-16.68,34.85-25.69,10.31-7.88,20.49-18.09,30.46-27.1,5.95-5.34,10.95-10.74,15.84-16.97,5.61-7.19,12.36-14.72,17.37-22.33,6.15-10.55,10.87-23.04,14.43-34.45,1.38-3.62,2.91-11.51,4.14-14.29"/>
    <path class="cls-5" d="M512.86,131.41v-35.92c0-20.12-16.35-36.41-36.47-36.33l-108.98.42c-21.22.08-38.38,17.31-38.38,38.53v33.3h32.95v-31.61c0-5.95,4.82-10.77,10.77-10.77h97.8c5.85,0,10.58,4.76,10.56,10.61l-.15,31.77h31.9"/>
    <g>
      <rect class="cls-4" x="490.19" y="217.16" width="39.3" height="173.13"/>
      <g>
        <rect class="cls-4" x="300.95" y="208.33" width="171.61" height="198.95"/>
        <rect class="cls-4" x="472.56" y="227.38" width="39.3" height="173.13"/>
        <rect class="cls-4" x="517.44" y="177.79" width="50.66" height="80.22" transform="translate(313.05 -319.98) rotate(45)"/>
      </g>
    </g>
    <polyline class="cls-2" points="211.94 393.67 340.83 349.19 353.52 366.28 349.13 365.98 296.02 390.08 283.45 395.8 275.02 400.48 266.18 402.15 242.32 411.36 216.14 414.63 211.94 420.94 211.94 393.67"/>
    <path class="cls-7" d="M260.74,139.91c67.92.25,298.79-.27,316.61.12,10.09,1.58,21.58,5.01,30.09,11.46,12.87,9.31,21.83,25.56,23.09,41.31.14,15.11-.09,89.63,0,117.3.28,5.81-6.16,10.78-9.44,15.45-8.8,10.67-19.18,20.09-29.66,29.08-7.44,6.16-18.45,15.57-25.91,21.69-13.84,9.93-35.89,22.39-51.74,32.65-14.08,8.59-31.97,17.44-47.37,26.04-11.5,6.25-26.03,10.94-39.04,16.57-9.56,3.98-18.55,7.17-28.37,10.91-8.86,3.18-16.91,6.9-25.9,8.71-28.24,6.52-59.06,13.97-88.58,14.32-10.62.92-19.92-.08-30.78-1.67-16.37-1.99-31.77-8.94-39.07-24.28-2.57-5.52-2.79-11.59-2.78-17.62.01-5.89-.04-14.13.04-19.25.04-3.88.67-7.28,5.11-8.32,10.32-2.57,20.09-3.24,30.34-6.66,11.18-3.65,23.32-6.25,33.87-10.91,12.56-5.68,49.54-22.56,67.89-30.83,2.72-1.15,3.67-1.03,5.48,1.73,4.77,7.84,10.56,18.17,15.58,26.72,2.41,3.73,5.67,11.2,8.46,12.24,4.07,1.27,8.74-1.71,10.99-5.02,1.39-2.26,1.37-5.02,1.38-7.64-.04-5.77-.14-14.54-.2-21.56.16-5.52-.66-9.39.65-13.41,10.79-9.46,47.68-30.22,60.69-39.21,2.07-1.24,4.68-3.48,5.79-.15,8.21,19.11,26.67,63.65,32.8,77.89,1.98,5.26,7.29-.69,11.27-2.75,3.64-2.41,8.82-5.67,11.51-8.09,1.44-1.4,1.7-2.47,1.64-4.3-1-14.18-4.93-71.52-6.74-96.97-.08-2.49-.62-4.29.83-6.25,4.74-5.19,11.33-9.56,16.79-14.29,6.19-4.92,11.05-10.02,16.9-15.72,10.1-10.43,21.1-18.7,28.1-31.49,10.48-16.32,3.98-30.88-16.74-25.29-15.04,4.64-27.67,13.43-39.68,23.12-9.99,8.01-27.02,21.7-34.31,27.54-2.78,2.28-5.15,4.55-8.84,2.67-15.22-5.29-79.58-28.45-95.45-33.86-2.86-.9-5.23,1.05-8.18,2.72-3.35,2.11-8.35,5.33-11.7,7.54-2.05,1.53-6.68,3.79-2.95,6.18,19.21,14.67,62.6,47.46,72.54,55.1,2.75,1.94,1.13,3.11-1.39,5.1-2.26,1.8-5.82,4.58-10.02,7.89-11.52,9.06-24.09,18.94-35.66,28.04-6.91,6.42-9.18,3.6-16.94,1.15-5.85-2.03-12.15-4.23-18.05-6.28-6.31-1.7-12.25-5.63-17.82-4.48-4.25,1.41-9.32,6.54-6.93,10.82,4.64,6.52,13.57,14.17,18.99,20.22,1.33,1.63,3.62,3.25,3.64,5.39-.15,1.18-1.73,2.1-4.46,3.39-11.56,5.14-27.21,12.83-39.58,17.55-11.75,4.23-23.69,9.53-35.53,12.71-10.96,2.74-22.32,6.4-33.27,8.02-4.19.61-8.74,1.3-12.86,1.72-3.44.21-3.98.18-3.99-1.91,1.64-26.59-3.61-191.89,2.47-215.48,5.37-16.06,17.83-27.41,34.26-34.02,1.61-.65,4.77-1.91,7.87-2.69,1.47-.37,3.49-.64,4.28-.67"/>
    <text class="cls-3" transform="translate(83.06 713.19)"><tspan x="0" y="0">TraveLog</tspan></text>
  </g>
</svg>